<?xml version="1.0" encoding="utf-8"?>
<!-- Generator: Adobe Illustrator 23.1.1, SVG Export Plug-In . SVG Version: 6.00 Build 0)  -->
<svg version="1.1" id="Layer_1" xmlns="http://www.w3.org/2000/svg" xmlns:xlink="http://www.w3.org/1999/xlink" x="0px" y="0px"
	 viewBox="0 0 41 29" style="enable-background:new 0 0 41 29;" xml:space="preserve">
<path fill="currentColor" d="M14.1,17.6C9.4,17.6,0,20,0,24.7v3.5h28.2v-3.5C28.2,20,18.8,17.6,14.1,17.6z M14.1,14.1c3.9,0,7.1-3.2,7.1-7.1S18,0,14.1,0
	S7,3.2,7,7.1S10.2,14.1,14.1,14.1z M14,3c2.2,0,4,1.8,4,4s-1.8,4-4,4s-4-1.8-4-4S11.8,3,14,3z M28.3,17.8c2.3,1.7,4,4,4,6.9v3.5h8.1
	v-3.5C40.3,20.6,33.3,18.3,28.3,17.8z M26.2,14.1c3.9,0,7.1-3.2,7.1-7.1c0-3.9-3.2-7.1-7.1-7.1c-1.1,0-2.1,0.3-3,0.7
	c1.3,1.8,2,4,2,6.4s-0.7,4.6-2,6.4C24.1,13.9,25.1,14.1,26.2,14.1z"/>
</svg>