<svg version="1.1" id="Layer_1" xmlns="http://www.w3.org/2000/svg" xmlns:xlink="http://www.w3.org/1999/xlink" x="0px" y="0px" width="100%" height="100%" viewBox="0 0 24 24" enable-background="new 0 0 24 24" xml:space="preserve" fit="" preserveAspectRatio="xMidYMid meet" focusable="false">
<g>
	<path fill="currentColor" d="M12,4.755c3.995,0,7.247,3.25,7.247,7.245c0,3.995-3.252,7.247-7.247,7.247c-3.995,0-7.245-3.252-7.245-7.247
		C4.755,8.005,8.005,4.755,12,4.755 M12,3.726c-4.571,0-8.276,3.704-8.276,8.275c0,4.57,3.705,8.275,8.276,8.275
		S20.276,16.57,20.276,12C20.276,7.429,16.571,3.726,12,3.726L12,3.726z"></path>
</g>
<path fill="currentColor" stroke-width="0.2" stroke-miterlimit="10" d="M13.061,9.861l-1.417,5.017
	c-0.096,0.341-0.143,0.542-0.143,0.606c0,0.076,0.022,0.14,0.068,0.188c0.045,0.048,0.1,0.069,0.161,0.069
	c0.072,0,0.157-0.036,0.258-0.114c0.271-0.213,0.546-0.521,0.823-0.916l0.252,0.165c-0.326,0.496-0.708,0.914-1.146,1.254
	c-0.325,0.252-0.635,0.378-0.931,0.378c-0.196,0-0.355-0.059-0.479-0.176c-0.125-0.116-0.187-0.263-0.187-0.438
	c0-0.179,0.06-0.471,0.179-0.881l0.931-3.207c0.152-0.525,0.229-0.854,0.229-0.988c0-0.105-0.037-0.191-0.11-0.258
	c-0.075-0.067-0.176-0.1-0.305-0.1c-0.105,0-0.322,0.026-0.651,0.079v-0.279L13.061,9.861z"></path>
<path fill="currentColor" stroke-width="0.2" stroke-miterlimit="10" d="M12.968,7.302c0.2,0,0.369,0.069,0.507,0.208
	c0.141,0.139,0.209,0.308,0.209,0.509c0,0.195-0.07,0.363-0.211,0.504c-0.142,0.141-0.31,0.211-0.505,0.211
	c-0.196,0-0.364-0.07-0.505-0.211c-0.142-0.141-0.211-0.309-0.211-0.504c0-0.201,0.069-0.37,0.207-0.509
	C12.598,7.371,12.768,7.302,12.968,7.302z"></path>
</svg>