<svg viewBox="0 0 24 32" xmlns="http://www.w3.org/2000/svg" xmlns:xlink="http://www.w3.org/1999/xlink">
  <defs>
    <path d="M19.962963 17.62963h-1.228889l-.435555-.42c1.524444-1.773334 2.442222-4.075556 2.442222-6.58 0-5.584445-4.526667-10.111111-10.111111-10.111111-5.584445 0-10.111111 4.526666-10.111111 10.11111 0 5.584445 4.526666 10.111112 10.11111 10.111112 2.504445 0 4.806667-.917778 6.58-2.442222l.42.435555v1.228889l7.777778 7.762222 2.317778-2.317778-7.762222-7.777777zm-9.333333 0c-3.873334 0-7-3.126667-7-7 0-3.873334 3.126666-7 7-7 3.873333 0 7 3.126666 7 7 0 3.873333-3.126667 7-7 7z" id="a"/>
  </defs>
  <use fill="currentColor" fill-rule="nonzero" xlink:href="#a"/>
</svg>
