<?xml version="1.0" encoding="utf-8"?>
<!-- Generator: Adobe Illustrator 22.1.0, SVG Export Plug-In . SVG Version: 6.00 Build 0)  -->
<svg version="1.1" xmlns="http://www.w3.org/2000/svg" xmlns:xlink="http://www.w3.org/1999/xlink" x="0px" y="0px"
	 viewBox="0 0 15.4 15.6" style="enable-background:new 0 0 15.4 15.6;" xml:space="preserve">
  <g>
   <path d="m13.2,10.7l-1,0l0,-7.8l-6.6,0l0,-1l7.1,0c0.3,0 0.5,0.2 0.5,0.5l0,8.3z"/>
   <path d="m10.5,14l-7.3,0c-0.3,0 -0.5,-0.2 -0.5,-0.5l0,-8.9c0,-0.3 0.2,-0.5 0.5,-0.5l7.3,0c0.3,0 0.5,0.2 0.5,0.5l0,8.9c0,0.3 -0.2,0.5 -0.5,0.5zm-6.8,-1l6.3,0l0,-7.9l-6.3,0l0,7.9z"/>
  </g>
</svg>
