<?xml version="1.0" encoding="UTF-8"?>
<svg width="18px" height="20px" viewBox="0 0 18 20" version="1.1" xmlns="http://www.w3.org/2000/svg" xmlns:xlink="http://www.w3.org/1999/xlink">
    <g id="Page-2-prototype" stroke="none" stroke-width="1" fill="none" fill-rule="evenodd">
        <g id="login-24px" transform="translate(9.000000, 10.000000) rotate(90.000000) translate(-9.000000, -10.000000) translate(-3.000000, -2.000000)">
            <rect id="Rectangle" x="0" y="0" width="24" height="24"></rect>
            <path d="M11,7 L9.6,8.4 L12.2,11 L2,11 L2,13 L12.2,13 L9.6,15.6 L11,17 L16,12 L11,7 Z M20,19 L12,19 L12,21 L20,21 C21.1,21 22,20.1 22,19 L22,5 C22,3.9 21.1,3 20,3 L12,3 L12,5 L20,5 L20,19 Z" id="Shape" fill="currentColor" fill-rule="nonzero"></path>
        </g>
    </g>
</svg>
