<svg width="120" height="120" xmlns="http://www.w3.org/2000/svg" xmlns:xlink="http://www.w3.org/1999/xlink">
  <defs>
    <path d="M2 8l40.468342 1.603207c-2.763246.201935-4.92624.55581-6.052311 1.06512C22.018004 17.1804 12 31.670286 12 48.5 12 71.419817 30.580183 90 53.5 90S95 71.419817 95 48.5c0-14.885984-7.837595-27.9414-19.611335-35.264799-1.893877-1.178012-5.658095-2.091175-10.147447-2.730322L103 12v80H14.367347L2 8z" id="search-dashboard-a"/>
    <path d="M12.866571 40.022575C12.298524 42.759325 12 45.5948 12 48.5 12 71.419817 30.580183 90 53.5 90S95 71.419817 95 48.5c0-2.892372-.295894-5.715634-.859063-8.441168M103 40v52H14.367347L6.716179 40.03266" id="search-dashboard-b"/>
  </defs>
  <g fill="none" fill-rule="evenodd">
    <ellipse fill="#D8D8D8" cx="69.5" cy="109" rx="33.5" ry="7"/>
    <use fill-opacity=".6" fill="#D8D8D8" xlink:href="#search-dashboard-a"/>
    <use fill-opacity=".8" fill="#E62966" xlink:href="#search-dashboard-a"/>
    <use fill-opacity=".8" fill="#ED6CA5" xlink:href="#search-dashboard-b"/>
    <use fill-opacity=".6" fill="#D8D8D8" xlink:href="#search-dashboard-b"/>
    <path d="M84.151135 75.040497l20.8284 21.966802-1.717416 1.788941-20.8284-21.966802 1.717416-1.788941zM73.737086 16.88495c8.441933 4.873588 14.48032 12.745173 17.004928 22.164491 2.521654 9.422272 1.225394 19.261014-3.646655 27.70266C80.342404 78.45167 68.047124 85 55.42704 85c-6.188978 0-12.451776-1.571363-18.18603-4.88245C19.813838 70.051374 13.81974 47.67717 23.882737 30.247444 33.945733 12.817718 56.309914 6.81582 73.737087 16.88495zm-18.188983-2.758747c-11.8878 0-23.46556 6.164351-29.822845 17.181616-9.47835 16.419564-3.83268 37.488236 12.578744 46.969582 16.411424 9.4843 37.476392 3.827983 46.948837-12.585674 4.591537-7.951334 5.811025-17.220014 3.434056-26.089946-2.37697-8.872885-8.061027-16.286648-16.012801-20.876682-5.39764-3.116144-11.300201-4.598896-17.12599-4.598896z" fill="#000"/>
    <path d="M55.5 74c-1.934333 0-3.5-1.565667-3.5-3.5 0-1.932 1.565667-3.5 3.5-3.5 1.932 0 3.5 1.568 3.5 3.5 0 1.934333-1.568 3.5-3.5 3.5zM54.959301 62.999932c-1.643307 0-2.543705-1.545213-2.543705-1.926423 0-7.363682 3.249408-11.896735 6.535998-14.410042 2.980862-2.281515 6.789812-3.163342 6.789812-8.43193 0-6.336904-3.955391-10.592326-10.782105-10.592326-6.496749 0-9.41676 5.652253-9.41676 12.360789 0 2.972965-2.310182 3.391104-2.681159 3.391104-.369112 0-2.389474-.35294-2.389474-3.391104 0-7.46902 3.764944-15.996038 14.51722-15.999816 10.752278-.003501 15.385811 6.905155 14.987265 14.231353-.359253 6.6039-5.08648 9.085833-8.201563 11.468877-3.159825 2.417525-4.2886 4.702871-4.2886 11.373095 0 .38121-.883622 1.926423-2.526929 1.926423z" fill="#000"/>
  </g>
</svg>
